# xmcd CD database file
#
# Track frame offsets:
#	150
#	17943
#	33345
#	46771
#	64473
#	81881
#	102516
#	117527
#	130898
#	147754
#	163178
#	183832
#
# Disc length: 2636 seconds
#
# Revision: 0
# Processed by: cddbd v1.5.2PL0 Copyright (c) Steve Scherf et al.
# Submitted via: CDex 1.77
#
DISCID=a80a4a0c
DTITLE=Rachael Dadd - We Resonate
DYEAR=2014
DGENRE=Jazz
TTITLE0=Make A Sentence
TTITLE1=Strike Our Scythes
TTITLE2=What Have You Made
TTITLE3=I Am Your Home
TTITLE4=Our Arms
TTITLE5=Animal Mineral
TTITLE6=Bounce The Ball
TTITLE7=Wake It
TTITLE8=Three
TTITLE9=Tap The Sap
TTITLE10=Come Together
TTITLE11=Let It Rise
EXTD=YEAR: 2014
EXTT0=
EXTT1=
EXTT2=
EXTT3=
EXTT4=
EXTT5=
EXTT6=
EXTT7=
EXTT8=
EXTT9=
EXTT10=
EXTT11=
PLAYORDER=
